<?xml version="1.0" ?><!DOCTYPE svg  PUBLIC '-//W3C//DTD SVG 1.1//EN'  'http://www.w3.org/Graphics/SVG/1.1/DTD/svg11.dtd'><svg enable-background="new 0 0 128 128" id="Слой_1" version="1.1" viewBox="0 0 128 128" xml:space="preserve" xmlns="http://www.w3.org/2000/svg" xmlns:xlink="http://www.w3.org/1999/xlink"><g><path d="M84,124H44c-11,0-20-9-20-20V51.4c0-13.7,7.7-26.2,20-32.4l0,0h40l0,0c12.3,6.1,20,18.7,20,32.4V104   C104,115,95,124,84,124z" fill="#CEEAE8"/><path d="M84,124H44c-11,0-20-9-20-20V51.4l80,0V104C104,115,95,124,84,124z" fill="#ECA292"/><path d="M104,100.8c-0.4-0.2-0.9-0.3-1.4-0.3c-1,0-2,0.5-2.6,1.2c-0.8-1.6-2.5-2.7-4.4-2.7c-2.2,0-4,1.4-4.7,3.4   c-0.7-2.8-3.3-4.9-6.3-4.9c-2.2,0-4.2,1.1-5.4,2.8c-1.4-2.8-4.3-4.8-7.7-4.8c-4.1,0-7.5,2.9-8.3,6.7c-0.4-0.4-1-0.7-1.7-0.7   c-0.5,0-1,0.2-1.4,0.4c-0.8-2.3-3-3.9-5.6-3.9c-2.4,0-4.6,1.5-5.5,3.6c-0.6-0.7-1.5-1.1-2.5-1.1c-1.2,0-2.2,0.6-2.8,1.4   c-0.9-3.1-3.8-5.4-7.2-5.4c-2.8,0-5.3,1.6-6.6,3.9C29.2,99.5,28,99,26.6,99c-1,0-1.9,0.3-2.6,0.8v4.2c0,0.6,0,1.1,0.1,1.7   c0,0.2,0,0.4,0.1,0.6c0.1,0.4,0.1,0.9,0.2,1.3c0.1,0.3,0.1,0.7,0.2,1l0,0h0c2.1,8.9,10,15.5,19.5,15.5h40c10.5,0,19-8,19.9-18.3   c0.1-0.6,0.1-1.1,0.1-1.7V100.8z" fill="#C9796F"/><g><polyline fill="none" points="24.5,108.5 24.5,108.5 24.5,108.5   "/></g><g><path d="M90.9,103.9C90.9,103.9,90.9,103.9,90.9,103.9c-0.7,0-1.3-0.5-1.5-1.1c-0.6-2.2-2.6-3.8-4.8-3.8    c-1.6,0-3.2,0.8-4.1,2.2c-0.3,0.4-0.8,0.7-1.3,0.6c-0.5,0-1-0.4-1.2-0.8c-1.2-2.4-3.6-4-6.3-4c-3.3,0-6.1,2.3-6.8,5.5    c-0.1,0.5-0.5,1-1,1.1c-0.5,0.2-1.1,0-1.5-0.3c-0.1-0.1-0.4-0.3-0.7-0.3c-0.2,0-0.4,0.1-0.5,0.2c-0.4,0.3-0.9,0.3-1.3,0.2    c-0.4-0.1-0.8-0.5-0.9-0.9c-0.7-1.8-2.3-2.9-4.2-2.9c-1.8,0-3.4,1.1-4.1,2.7c-0.2,0.5-0.6,0.8-1.1,0.9c-0.5,0.1-1-0.1-1.3-0.4    c-0.8-0.9-2.3-0.8-3,0.2c-0.3,0.5-0.9,0.7-1.5,0.6c-0.6-0.1-1-0.5-1.2-1.1c-0.7-2.6-3.1-4.3-5.8-4.3c-2.2,0-4.2,1.2-5.3,3.1    c-0.2,0.4-0.6,0.7-1.1,0.8c-0.5,0.1-0.9-0.1-1.3-0.4c-1.1-1.1-2.9-1.3-4.2-0.4c-0.7,0.4-1.6,0.2-2.1-0.5s-0.2-1.6,0.5-2.1    c2-1.2,4.5-1.3,6.5-0.2c1.7-2,4.2-3.3,6.9-3.3c3.2,0,6.2,1.8,7.8,4.5c1.3-0.6,2.9-0.7,4.3-0.1c1.4-1.8,3.6-2.9,6-2.9    c2.6,0,5,1.4,6.4,3.5c0.5-0.1,1-0.1,1.4,0c1.5-3.6,5.2-6.1,9.2-6.1c3.1,0,6,1.5,7.9,3.9c1.4-1.2,3.2-1.9,5.1-1.9    c2.6,0,5,1.3,6.5,3.3c1.2-1.2,2.8-1.8,4.5-1.8c1.8,0,3.5,0.8,4.7,2.1c1.3-0.7,2.9-0.7,4.2-0.2c0.8,0.3,1.1,1.2,0.8,2    c-0.3,0.8-1.2,1.1-2,0.8c-0.7-0.3-1.7-0.1-2.3,0.5c-0.3,0.4-0.8,0.5-1.3,0.5c-0.5-0.1-0.9-0.4-1.1-0.8c-0.6-1.2-1.8-1.9-3.1-1.9    c-1.5,0-2.8,1-3.3,2.4C92.1,103.5,91.6,103.9,90.9,103.9z" fill="#454B54"/></g><path d="M35,104V51.4c0-13.7,7.7-26.2,20-32.4H44c-12.3,6.1-20,18.7-20,32.4V104c0,11,9,20,20,20h11   C43.9,124,35,115,35,104z" fill="#FFFFFF"/><path d="M34,11.5L34,11.5C34,7.4,37.4,4,41.5,4h45c4.1,0,7.5,3.4,7.5,7.5v0c0,4.1-3.4,7.5-7.5,7.5h-45   C37.4,19,34,15.6,34,11.5z" fill="#AB7866"/><path d="M44,11.5C44,7.4,47.4,4,51.5,4h-10C37.4,4,34,7.4,34,11.5s3.4,7.5,7.5,7.5h10C47.4,19,44,15.6,44,11.5z" fill="#FFFFFF"/><g><path d="M34,105.5c-0.8,0-1.5-0.7-1.5-1.5V51.4c0-8.5,3.8-16.5,10.5-21.7c0.7-0.5,1.6-0.4,2.1,0.3    c0.5,0.7,0.4,1.6-0.2,2.1c-5.9,4.7-9.3,11.7-9.3,19.4V104C35.5,104.8,34.8,105.5,34,105.5z" fill="#454B54"/></g><path d="M88.9,20.2c3.8-1.1,6.6-4.5,6.6-8.7c0-5-4-9-9-9h-45c-5,0-9,4-9,9c0,4.1,2.8,7.6,6.6,8.7   c-10.3,7-16.6,18.5-16.6,31.2V104c0,11.9,9.6,21.5,21.5,21.5h40c11.9,0,21.5-9.6,21.5-21.5V51.4C105.5,38.7,99.2,27.1,88.9,20.2z    M35.5,11.5c0-3.3,2.7-6,6-6h45c3.3,0,6,2.7,6,6s-2.7,6-6,6h-45C38.2,17.5,35.5,14.8,35.5,11.5z M84,122.5H44   c-10.2,0-18.5-8.3-18.5-18.5V51.4c0-13.1,7.2-24.9,18.9-30.9h39.2c11.2,5.7,18.3,16.9,18.8,29.4H44c-0.8,0-1.5,0.7-1.5,1.5   s0.7,1.5,1.5,1.5h58.5V104C102.5,114.2,94.2,122.5,84,122.5z" fill="#454B54"/></g></svg>