<?xml version="1.0" ?><!DOCTYPE svg  PUBLIC '-//W3C//DTD SVG 1.1//EN'  'http://www.w3.org/Graphics/SVG/1.1/DTD/svg11.dtd'><svg enable-background="new 0 0 128 128" id="Слой_1" version="1.1" viewBox="0 0 128 128" xml:space="preserve" xmlns="http://www.w3.org/2000/svg" xmlns:xlink="http://www.w3.org/1999/xlink"><g><circle cx="64" cy="79" fill="#EE9A6E" r="45"/><path d="M34,79c0-22.3,16.2-40.8,37.5-44.4C69.1,34.2,66.6,34,64,34c-24.9,0-45,20.1-45,45c0,24.9,20.1,45,45,45   c2.6,0,5.1-0.2,7.5-0.6C50.2,119.8,34,101.3,34,79z" fill="#FFFFFF"/><g><path d="M44,56.7c-1.5,0-2.8-1.2-2.8-2.8s1.2-2.8,2.8-2.8s2.8,1.2,2.8,2.8S45.5,56.7,44,56.7z" fill="#454B54"/></g><g><path d="M54,71.8c-1.5,0-2.8-1.2-2.8-2.8s1.2-2.8,2.8-2.8s2.8,1.2,2.8,2.8S55.5,71.8,54,71.8z" fill="#454B54"/></g><g><path d="M34,73.8c-1.5,0-2.8-1.2-2.8-2.8s1.2-2.8,2.8-2.8s2.8,1.2,2.8,2.8S35.5,73.8,34,73.8z" fill="#454B54"/></g><path d="M34,4L19,4v0c0,16.6,13.4,30,30,30l15,0v0C64,17.4,50.6,4,34,4z" fill="#2EAE9D"/><path d="M19,4L19,4c0,16.6,13.4,30,30,30l15,0v0C64,17.4,19,4,19,4z" opacity="0.1"/><path d="M67.8,32.7C72.2,22.6,82.3,15.5,94,15.5c0.8,0,1.5-0.7,1.5-1.5s-0.7-1.5-1.5-1.5   c-12.7,0-23.7,7.6-28.7,18.4C63.8,15,50.3,2.5,34,2.5H19c-0.8,0-1.5,0.7-1.5,1.5c0,16.9,13.4,30.8,30.2,31.5   C30.1,42.1,17.5,59.1,17.5,79c0,25.6,20.9,46.5,46.5,46.5s46.5-20.9,46.5-46.5C110.5,54.7,91.7,34.6,67.8,32.7z M20.5,5.5H34   c15.2,0,27.7,12,28.5,27H49C33.8,32.5,21.3,20.5,20.5,5.5z M64,122.5c-24,0-43.5-19.5-43.5-43.5c0-23.9,19.3-43.3,43.2-43.5   c-0.8,2.7-1.2,5.6-1.2,8.5c0,0.8,0.7,1.5,1.5,1.5s1.5-0.7,1.5-1.5c0-2.9,0.4-5.7,1.3-8.4C89.5,37,107.5,55.9,107.5,79   C107.5,103,88,122.5,64,122.5z" fill="#454B54"/></g></svg>