<?xml version="1.0" ?><!DOCTYPE svg  PUBLIC '-//W3C//DTD SVG 1.1//EN'  'http://www.w3.org/Graphics/SVG/1.1/DTD/svg11.dtd'><svg enable-background="new 0 0 128 128" id="Слой_1" version="1.1" viewBox="0 0 128 128" xml:space="preserve" xmlns="http://www.w3.org/2000/svg" xmlns:xlink="http://www.w3.org/1999/xlink"><g><path d="M81.5,42.7V42c0-9.8-8-18.1-17.8-18c-9.5,0.2-17.2,7.9-17.2,17.5v1.2c0,8.7-3.3,16.9-9,23.5   C32,72.5,28.8,80.7,29,89.8c0.4,19,16.3,34.4,35.4,34.2C83.5,123.8,99,108.2,99,89c0-8.8-3.3-16.8-8.6-23   C84.7,59.5,81.5,51.3,81.5,42.7z" fill="#E3B656"/><path d="M39,89.8c-0.2-9,3-14.3,8.5-20.6c5.7-6.6,9-17.8,9-26.5v-1.2c0-7.9,5.3-14.6,12.5-16.7   c-1.7-0.5-3.5-0.8-5.3-0.8c-9.5,0.2-17.2,7.9-17.2,17.5v1.2c0,8.7-3.3,16.9-9,23.5C32,72.5,28.8,80.7,29,89.8   c0.4,19,16.3,34.4,35.4,34.2c1.6,0,3.1-0.1,4.6-0.4C52.4,121.2,39.4,107,39,89.8z" fill="#FFFFFF"/><g><path d="M39,91.1c-0.8,0-1.5-0.7-1.5-1.5c-0.1-6.6,2.1-12.9,6.4-17.8C51.1,63.5,55,53.1,55,42.7v-1.2    c0-0.8,0.7-1.5,1.5-1.5s1.5,0.7,1.5,1.5v1.2c0,11.2-4.2,22.2-11.8,31c-3.8,4.4-5.8,10-5.7,15.8C40.5,90.3,39.9,91,39,91.1    C39,91.1,39,91.1,39,91.1z" fill="#454B54"/></g><path d="M34,4L19,4v0c0,16.6,13.4,30,30,30l15,0v0C64,17.4,50.6,4,34,4z" fill="#2EAE9D"/><path d="M19,4L19,4c0,16.6,13.4,30,30,30l15,0v0C64,17.4,19,4,19,4z" opacity="0.1"/><path d="M91.5,65C86,58.8,83,50.8,83,42.7V42c0-10.1-8-18.7-17.8-19.4C66,13,73.9,5.5,83.7,5.5   c0.8,0,1.5-0.7,1.5-1.5s-0.7-1.5-1.5-1.5c-10.7,0-19.5,7.8-21.2,18C57.4,9.9,46.5,2.5,34,2.5H19c-0.8,0-1.5,0.7-1.5,1.5   c0,16.4,12.6,29.9,28.6,31.4c-0.7,1.9-1.1,4-1.1,6.1v1.2c0,8.1-3.1,16.1-8.7,22.5c-5.9,6.8-9,15.6-8.8,24.6   c0.4,19.7,16.8,35.7,36.5,35.7l0.4,0c19.9-0.2,36.1-16.6,36.1-36.5C100.5,80.2,97.3,71.7,91.5,65z M20.5,5.5H34   c15.2,0,27.7,12,28.5,27H49C33.8,32.5,21.3,20.5,20.5,5.5z M64.4,122.5l-0.3,0c-18.1,0-33.1-14.7-33.5-32.8   c-0.2-8.3,2.7-16.3,8.1-22.6c6.1-7,9.4-15.7,9.4-24.5v-1.2c0-2.1,0.4-4.1,1.2-6H64c0.8,0,1.5-0.7,1.5-1.5c0-2.9-0.4-5.8-1.2-8.5   C72.9,25.7,80,33.2,80,42v0.7c0,8.9,3.3,17.5,9.2,24.3c5.3,6.1,8.3,13.9,8.3,22C97.5,107.3,82.6,122.3,64.4,122.5z" fill="#454B54"/></g></svg>