<?xml version="1.0" ?><!DOCTYPE svg  PUBLIC '-//W3C//DTD SVG 1.1//EN'  'http://www.w3.org/Graphics/SVG/1.1/DTD/svg11.dtd'><svg enable-background="new 0 0 128 128" id="Слой_1" version="1.1" viewBox="0 0 128 128" xml:space="preserve" xmlns="http://www.w3.org/2000/svg" xmlns:xlink="http://www.w3.org/1999/xlink"><g><path d="M93.2,72.5l0.1,28.8c0,3.6-1.9,6.9-5,8.7l-19.9,11.6c-3.1,1.8-6.9,1.8-10,0l-20-11.4c-3.1-1.8-5-5.1-5-8.6   l-0.1-28.8l29.9-17.4" fill="#F1C74A"/><path d="M118.9,58.2L93.2,72.5l-30-17.2V21.4L88.4,6.5c3.1-1.8,6.9-1.9,10-0.1l20.4,11.5c3.1,1.8,5.1,5.1,5.1,8.7   l0.1,22.9C124,53,122,56.4,118.9,58.2z" fill="#F1C74A"/><path d="M33.3,72.7L9,58.4c-3-1.8-4.9-5.1-4.9-8.6L4,26.6c0-3.5,1.9-6.8,4.9-8.6L28.2,6.6c3.2-1.9,7.1-1.9,10.2,0   l24.8,14.8v33.9L33.3,72.7z" fill="#F1C74A"/><path d="M19.2,46.5l14.1-8.4l0-17c0-7.8-8.4-12.6-15.1-8.6L8.9,18c-3,1.8-4.9,5.1-4.9,8.6L4,38   C4.1,45.7,12.5,50.5,19.2,46.5z" fill="#F8F7FB" opacity="0.5"/><path d="M78.4,47.5l14.1-8.4l0-17c0-7.8-8.4-12.6-15.1-8.6l-14.2,8.4L63.3,39   C63.3,46.7,71.7,51.5,78.4,47.5z" fill="#F8F7FB" opacity="0.5"/><path d="M48.8,98.3l14.1-8.4l0-17c0-7.8-8.4-12.6-15.1-8.6l-14.2,8.4l0.1,17.1   C33.7,97.5,42.1,102.3,48.8,98.3z" fill="#F8F7FB" opacity="0.5"/><g><path d="M43.4,103c-0.8,0-1.5-0.7-1.5-1.5l-0.1-23c0-0.5,0.3-1,0.7-1.3l20.6-12c0.7-0.4,1.6-0.2,2.1,0.5    c0.4,0.7,0.2,1.6-0.5,2.1L44.9,79.3l0.1,22.2C44.9,102.3,44.3,103,43.4,103C43.4,103,43.4,103,43.4,103z" fill="#454B54"/></g><g><path d="M73.2,51c-0.8,0-1.5-0.7-1.5-1.5V27.1c0-0.5,0.3-1,0.7-1.3l20.2-12c0.7-0.4,1.6-0.2,2.1,0.5    c0.4,0.7,0.2,1.6-0.5,2.1L74.7,27.9v21.6C74.7,50.3,74,51,73.2,51z" fill="#454B54"/></g><path d="M125.4,26.5c0-4.1-2.3-8-5.9-10L99.1,5.1c-3.5-2-8-1.9-11.5,0.1L63.2,19.6l-24-14.3   c-3.6-2.2-8.1-2.2-11.8,0L8.1,16.7c-3.5,2.1-5.6,5.9-5.6,9.9l0.1,23.2c0,4,2.2,7.8,5.7,9.9l23.6,13.9l0.1,27.9   c0,4.1,2.2,7.9,5.8,9.9l20,11.4c1.8,1,3.7,1.5,5.7,1.5c2,0,4-0.5,5.8-1.6l19.9-11.6c3.5-2.1,5.7-5.9,5.7-10l-0.1-27.9l24.9-13.9   c3.6-2,5.9-5.9,5.9-10.1L125.4,26.5z M5.6,49.8L5.5,26.6c0-3,1.6-5.8,4.2-7.3L29,7.9c2.7-1.6,6-1.6,8.7,0l24,14.3v32.2L33.3,71   L9.8,57.1C7.2,55.6,5.6,52.8,5.6,49.8z M87.6,108.7l-19.9,11.6c-2.6,1.5-5.9,1.5-8.5,0l-20-11.4c-2.6-1.5-4.3-4.3-4.3-7.3   l-0.1-27.9L63.2,57l28.5,16.3l0.1,27.9C91.8,104.3,90.2,107.2,87.6,108.7z M118.1,56.9L93.2,70.8L64.7,54.4V22.2L89.1,7.8   c2.6-1.5,5.9-1.6,8.5-0.1l20.4,11.5c2.7,1.5,4.3,4.3,4.3,7.4l0.1,22.9C122.5,52.5,120.8,55.4,118.1,56.9z" fill="#454B54"/><g><path d="M14.1,51.3c-0.8,0-1.5-0.7-1.5-1.5l-0.1-23.2c0-0.5,0.3-1,0.7-1.3l19.3-11.4c0.7-0.4,1.6-0.2,2.1,0.5    c0.4,0.7,0.2,1.6-0.5,2.1l-18.6,11l0.1,22.3C15.6,50.6,14.9,51.3,14.1,51.3C14.1,51.3,14.1,51.3,14.1,51.3z" fill="#454B54"/></g></g></svg>