<?xml version="1.0" ?><!DOCTYPE svg  PUBLIC '-//W3C//DTD SVG 1.1//EN'  'http://www.w3.org/Graphics/SVG/1.1/DTD/svg11.dtd'><svg enable-background="new 0 0 128 128" id="Слой_1" version="1.1" viewBox="0 0 128 128" xml:space="preserve" xmlns="http://www.w3.org/2000/svg" xmlns:xlink="http://www.w3.org/1999/xlink"><g><g><path d="M94,124H34c-5.5,0-10-4.5-10-10V44C24,21.9,41.9,4,64,4h0c22.1,0,40,17.9,40,40v70    C104,119.5,99.5,124,94,124z" fill="#E5E3E3"/><path d="M104,104.9v-4.2l-4.6,4.6l-5-5l5-5l4.6,4.6v-4.2l-2.5-2.5l2.5-2.5v-4.2l-4.6,4.6l-5-5l5-5    l4.6,4.6v-4.2l-2.5-2.5l2.5-2.5v-4.2L99.4,77l-5-5l5-5l4.6,4.6v-4.2l-2.5-2.5l2.5-2.5v-4.2l-4.6,4.6l-5-5l5-5l4.6,4.6v-4.2    l-2.5-2.5l2.5-2.5v-4.2l-4.6,4.6l-5-5l5-5l4.6,4.6c0-1.5-0.1-3.1-0.3-4.6l-2.2-2.2l1.5-1.5c-0.3-1.1-0.6-2.2-0.9-3.3l-2.7,2.7    l-5-5l4.7-4.7C95.4,18,89.7,12.4,82.8,8.7l-4.7,4.7l-5-5l2.6-2.6c-1.1-0.3-2.2-0.6-3.4-0.9l-1.4,1.4l-2-2c-1.5-0.2-3-0.3-4.6-0.3    L69,8.4l-5,5l-5-5L63.5,4c-1.5,0-3.1,0.1-4.6,0.3l-2,2l-1.4-1.4c-1.1,0.2-2.3,0.5-3.4,0.9l2.7,2.7l-5,5l-4.7-4.7    c-6.9,3.7-12.6,9.3-16.3,16.2l4.8,4.8l-5,5l-2.8-2.8c-0.3,1.1-0.6,2.2-0.9,3.3l1.5,1.5l-2.2,2.2c-0.2,1.5-0.3,3-0.3,4.6l4.6-4.6    l5,5l-5,5L24,44.1v4.2l2.5,2.5L24,53.4v4.2l4.6-4.6l5,5l-5,5L24,58.2v4.2l2.5,2.5L24,67.5v4.2l4.6-4.6l5,5l-5,5L24,72.4v4.2    l2.5,2.5L24,81.7v4.2l4.6-4.6l5,5l-5,5L24,86.5v4.2l2.5,2.5L24,95.8v4.2l4.6-4.6l5,5l-5,5l-4.6-4.6v4.2l2.5,2.5L24,110v4    c0,0.1,0,0.1,0,0.2l4.6-4.6l5,5l-5,5l-4.6-4.6c0.4,4.8,4.3,8.7,9.1,9.1l-2.4-2.4l5-5l5,5l-2.4,2.4h4.2l0.3-0.3l0.3,0.3h4.2    l-2.4-2.4l5-5l5,5l-2.4,2.4h4.2l0.3-0.3l0.3,0.3h4.2l-2.4-2.4l5-5l5,5l-2.4,2.4h4.2l0.3-0.3l0.3,0.3h4.2l-2.4-2.4l5-5l5,5    l-2.4,2.4h4.2l0.3-0.3l0.3,0.3h4.2l-2.4-2.4l5-5l5,5l-2.4,2.4c4.8-0.4,8.7-4.3,9.1-9.1l-4.6,4.6l-5-5l5-5l4.6,4.6    c0-0.1,0-0.1,0-0.2v-4l-2.5-2.5L104,104.9z M97.2,93.3l-5,5l-5-5l5-5L97.2,93.3z M61.9,72.1l-5,5l-5-5l5-5L61.9,72.1z M52,57.9    l5-5l5,5l-5,5L52,57.9z M59,65l5-5l5,5l-5,5L59,65z M66.1,57.9l5-5l5,5l-5,5L66.1,57.9z M71.1,67.1l5,5l-5,5l-5-5L71.1,67.1z     M73.2,65l5-5l5,5l-5,5L73.2,65z M73.2,50.9l5-5l5,5l-5,5L73.2,50.9z M71.1,48.7l-5-5l5-5l5,5L71.1,48.7z M69,50.9l-5,5l-5-5l5-5    L69,50.9z M56.9,48.7l-5-5l5-5l5,5L56.9,48.7z M54.8,50.9l-5,5l-5-5l5-5L54.8,50.9z M54.8,65l-5,5l-5-5l5-5L54.8,65z M54.8,79.2    l-5,5l-5-5l5-5L54.8,79.2z M56.9,81.3l5,5l-5,5l-5-5L56.9,81.3z M59,79.2l5-5l5,5l-5,5L59,79.2z M71.1,81.3l5,5l-5,5l-5-5    L71.1,81.3z M73.2,79.2l5-5l5,5l-5,5L73.2,79.2z M85.2,81.3l5,5l-5,5l-5-5L85.2,81.3z M80.3,72.1l5-5l5,5l-5,5L80.3,72.1z     M80.3,57.9l5-5l5,5l-5,5L80.3,57.9z M80.3,43.8l5-5l5,5l-5,5L80.3,43.8z M80.3,29.6l5-5l5,5l-5,5L80.3,29.6z M83.1,36.7l-5,5    l-5-5l5-5L83.1,36.7z M71.1,34.6l-5-5l5-5l5,5L71.1,34.6z M69,36.7l-5,5l-5-5l5-5L69,36.7z M56.9,34.6l-5-5l5-5l5,5L56.9,34.6z     M54.8,36.7l-5,5l-5-5l5-5L54.8,36.7z M42.8,34.6l-5-5l5-5l5,5L42.8,34.6z M47.7,43.8l-5,5l-5-5l5-5L47.7,43.8z M47.7,57.9l-5,5    l-5-5l5-5L47.7,57.9z M47.7,72.1l-5,5l-5-5l5-5L47.7,72.1z M47.7,86.2l-5,5l-5-5l5-5L47.7,86.2z M47.7,100.4l-5,5l-5-5l5-5    L47.7,100.4z M44.9,93.3l5-5l5,5l-5,5L44.9,93.3z M56.9,95.4l5,5l-5,5l-5-5L56.9,95.4z M59,93.3l5-5l5,5l-5,5L59,93.3z M71.1,95.4    l5,5l-5,5l-5-5L71.1,95.4z M73.2,93.3l5-5l5,5l-5,5L73.2,93.3z M85.2,95.4l5,5l-5,5l-5-5L85.2,95.4z M97.2,79.1l-5,5l-5-5l5-5    L97.2,79.1z M97.2,65l-5,5l-5-5l5-5L97.2,65z M97.2,50.9l-5,5l-5-5l5-5L97.2,50.9z M97.2,36.7l-5,5l-5-5l5-5L97.2,36.7z     M92.3,17.6l5,5l-5,5l-5-5L92.3,17.6z M85.2,10.6l5,5l-5,5l-5-5L85.2,10.6z M83.1,22.6l-5,5l-5-5l5-5L83.1,22.6z M71.1,10.6l5,5    l-5,5l-5-5L71.1,10.6z M69,22.6l-5,5l-5-5l5-5L69,22.6z M56.9,10.6l5,5l-5,5l-5-5L56.9,10.6z M54.8,22.6l-5,5l-5-5l5-5L54.8,22.6z     M42.8,10.6l5,5l-5,5l-5-5L42.8,10.6z M30.8,22.6l5-5l5,5l-5,5L30.8,22.6z M30.8,36.7l5-5l5,5l-5,5L30.8,36.7z M30.8,50.9l5-5l5,5    l-5,5L30.8,50.9z M30.8,65l5-5l5,5l-5,5L30.8,65z M30.8,79.2l5-5l5,5l-5,5L30.8,79.2z M30.8,93.3l5-5l5,5l-5,5L30.8,93.3z     M30.8,107.4l5-5l5,5l-5,5L30.8,107.4z M42.8,119.5l-5-5l5-5l5,5L42.8,119.5z M44.9,107.4l5-5l5,5l-5,5L44.9,107.4z M56.9,119.5    l-5-5l5-5l5,5L56.9,119.5z M59,107.4l5-5l5,5l-5,5L59,107.4z M71.1,119.5l-5-5l5-5l5,5L71.1,119.5z M73.2,107.4l5-5l5,5l-5,5    L73.2,107.4z M85.2,119.5l-5-5l5-5l5,5L85.2,119.5z M92.3,112.4l-5-5l5-5l5,5L92.3,112.4z" fill="#CEDD73" opacity="0.5"/><path d="M39.7,49C47.8,49.4,54,56.3,54,64.4V84l0,0l5.5-11C67,58,57,39.9,40.3,39c-0.4,0-0.9,0-1.3,0    c-5.6,0-10.8,1.9-15,5v20C24,55.5,31.1,48.6,39.7,49z" opacity="0.1"/><path d="M64,4C41.9,4,24,21.9,24,44v70c0,5.5,4.5,10,10,10h10c-5.5,0-10-4.5-10-10V44C34,23.6,49.3,6.8,69,4.3    C67.4,4.1,65.7,4,64,4L64,4z" fill="#FFFFFF"/><path d="M94,124H34c-5.5,0-10-4.5-10-10v-10h80v10C104,119.5,99.5,124,94,124z" fill="#A86969"/><path d="M64,2.5C41.1,2.5,22.5,21.1,22.5,44v70c0,6.3,5.2,11.5,11.5,11.5h60c6.3,0,11.5-5.2,11.5-11.5V44    C105.5,21.1,86.9,2.5,64,2.5z M102.5,114c0,4.7-3.8,8.5-8.5,8.5H34c-4.7,0-8.5-3.8-8.5-8.5v-8.5H64c0.8,0,1.5-0.7,1.5-1.5    s-0.7-1.5-1.5-1.5H25.5V64c0-7.4,6.1-13.5,13.5-13.5c7.4,0,13.5,6.1,13.5,13.5v20c0,0.8,0.7,1.5,1.5,1.5s1.5-0.7,1.5-1.5V64    c0-9.1-7.4-16.5-16.5-16.5c-5.6,0-10.5,2.8-13.5,7V44C25.5,22.8,42.8,5.5,64,5.5s38.5,17.3,38.5,38.5V114z" fill="#454B54"/></g></g></svg>