<?xml version="1.0" ?><!DOCTYPE svg  PUBLIC '-//W3C//DTD SVG 1.1//EN'  'http://www.w3.org/Graphics/SVG/1.1/DTD/svg11.dtd'><svg enable-background="new 0 0 128 128" id="Слой_1" version="1.1" viewBox="0 0 128 128" xml:space="preserve" xmlns="http://www.w3.org/2000/svg" xmlns:xlink="http://www.w3.org/1999/xlink"><g><path d="M60.1,68.8l4.6,25.7c1.8,10.2-6,19.5-16.4,19.5H38.2c-10.4,0-18.2-9.3-16.4-19.5l4.6-25.3" fill="#E5E3E3"/><path d="M26.3,69.2l-4.6,25.3c-1.8,10.2,6,19.5,16.4,19.5h10c-10.4,0-18.2-9.3-16.4-19.5l4.6-25.3H26.3z" fill="#FFFFFF"/><path d="M111.4,98.5L111.4,98.5c-9.7-8.9-21.3-15.6-33.8-19.5l0,0c-1.6-0.5-2.4-2.2-1.8-3.7l1.8-4.4   c5.4-13.4,21.4-18.9,34-11.6l0,0c12.6,7.3,15.8,23.9,6.9,35.2l-3,3.8C114.5,99.4,112.6,99.6,111.4,98.5z" fill="#AB7866"/><path d="M103.8,92.7l-5.3,14.8c-2.1,5.8-9,8.3-14.4,5.2l-5.3-3c-5.4-3.1-6.7-10.3-2.7-15l10-11.8" fill="#E5E3E3"/><path d="M84.2,96.6l8.5-10.1l-6.6-3.7l-10,11.8c-4,4.7-2.7,11.9,2.7,15l5.3,3c2.1,1.2,4.4,1.6,6.6,1.2l-3.9-2.3   C81.5,108.5,80.2,101.3,84.2,96.6z" fill="#FFFFFF"/><path d="M84.8,77.2l2.8-6.4c3.1-7.7,9.6-12.7,17-14.3c-11-2.4-22.6,3.3-27,14.3l-1.8,4.4c-0.6,1.5,0.2,3.2,1.8,3.7   c12.6,4,24.1,10.6,33.8,19.5c-9.7-8.9-12.3-13.6-24.8-17.5C85,80.5,84.2,78.7,84.8,77.2z" fill="#FFFFFF"/><path d="M75.8,70.9L75.8,70.9c-21.4-4.7-43.7-4.7-65.1,0l0,0C8,71.5,5.4,69.7,5,67l-1.1-7.9   C0.5,35.3,19.1,14,43.2,14h0C67.4,14,86,35.3,82.6,59.1L81.5,67C81.1,69.7,78.5,71.5,75.8,70.9z" fill="#AB7866"/><path d="M19.9,59.1c-3.1-21.3,11.5-40.5,31.9-44.4c-2.4-0.5-4.9-0.7-7.5-0.7h0C20.1,14,1.5,35.3,4.9,59.1L6,67   c0.4,2.7,3,4.5,5.7,3.9h0c3.4-0.7,6.8-1.4,10.2-1.9c-0.4-0.6-0.7-1.3-0.8-2L19.9,59.1z" fill="#FFFFFF"/><g><path d="M15.1,61.5c-0.7,0-1.4-0.5-1.5-1.3l-0.3-2.3C12,49,14.7,40.1,20.5,33.3c5.9-6.9,14.6-10.8,23.7-10.8    c0.8,0,1.5,0.7,1.5,1.5s-0.7,1.5-1.5,1.5c-8.2,0-16.1,3.6-21.4,9.8c-5.3,6.1-7.7,14.2-6.5,22.2l0.3,2.3c0.1,0.8-0.5,1.6-1.3,1.7    C15.3,61.5,15.2,61.5,15.1,61.5z" fill="#454B54"/></g><g><path d="M39.2,105.5c-3.3,0-5.4-1.8-6.3-2.9c-0.9-1.1-2.3-3.4-1.7-6.5c0.1-0.8,0.9-1.3,1.7-1.2    c0.8,0.1,1.4,0.9,1.2,1.7c-0.4,2,0.5,3.4,1.1,4.1c0.6,0.7,1.9,1.9,4,1.9c0.8,0,1.5,0.7,1.5,1.5S40,105.5,39.2,105.5z" fill="#454B54"/></g><g><path d="M89.1,73.6c-0.3,0-0.6-0.1-0.8-0.2c-0.7-0.5-0.9-1.4-0.4-2.1c2.8-4.3,7.6-6.9,12.8-6.9    c0.8,0,1.5,0.7,1.5,1.5s-0.7,1.5-1.5,1.5c-4.2,0-8,2.1-10.3,5.5C90,73.4,89.5,73.6,89.1,73.6z" fill="#454B54"/></g><path d="M125.5,75c-1.4-7.2-5.9-13.5-12.3-17.2c-9-5.2-20.3-4.3-28.3,1.9l0.1-0.5c1.7-11.7-1.8-23.6-9.6-32.6   c-7.8-9.1-19.2-14.2-31.3-14.2S20.8,17.7,13,26.7c-7.8,9-11.3,20.8-9.6,32.6l1.1,7.9c0.3,2.3,1.9,4.1,4,4.9c0.1,0,0.2,0.1,0.3,0.1   c0.1,0,0.1,0,0.2,0c0.3,0.1,0.6,0.1,0.9,0.2c4.7,1,9.7,1.8,14.9,2.4l-3.5,19.5c-0.9,5.3,0.5,10.6,3.9,14.7c3.5,4.1,8.6,6.5,14,6.5   h10.2c5.4,0,10.5-2.4,14-6.5c3.4-4.1,4.9-9.5,3.9-14.7l-3.5-19.4c4.3-0.5,8.4-1.1,12.4-1.9l-0.7,1.7c-0.4,1.1-0.4,2.4,0.1,3.4   c0.2,0.4,0.4,0.7,0.7,1c0,0,0,0.1,0.1,0.1c0,0,0.1,0.1,0.1,0.1c0.1,0.1,0.2,0.2,0.3,0.3c2,1.8,4.2,3.6,6.6,5.4l-7.2,8.6   c-2.2,2.6-3.1,6-2.5,9.3c0.6,3.4,2.6,6.3,5.6,8l5.3,3c1.8,1,3.8,1.6,5.8,1.6c1.3,0,2.7-0.2,4-0.7c3.2-1.2,5.7-3.7,6.8-6.8l3.8-10.5   c2.7,1.2,5.4,2.2,8.1,3c0,0,0,0,0,0c0.5,0.2,1,0.3,1.5,0.3c0.1,0,0.2,0,0.3,0c1.2-0.1,2.3-0.7,3-1.6l3-3.8   C125.1,89.6,126.9,82.2,125.5,75z M18.9,71c2.2-0.4,4.5-0.7,6.7-1l-0.3,1.8C23.2,71.6,21,71.3,18.9,71z M64.3,94.8   c0.8,4.4-0.4,8.9-3.3,12.3c-2.9,3.5-7.1,5.4-11.7,5.4H39.2c-4.5,0-8.8-2-11.7-5.4c-2.9-3.4-4-7.9-3.3-12.3l4.5-25.1   c10.3-1.1,20.7-1.1,30.9,0L64.3,94.8z M63.2,71.9L62.8,70c2.3,0.3,4.6,0.6,6.9,1C67.6,71.4,65.4,71.6,63.2,71.9z M77.1,69.4   c-10.8-2.4-21.8-3.6-32.9-3.6c-11,0-22.1,1.2-32.9,3.6c-0.3,0.1-0.7,0.1-1,0c-0.2,0-0.4-0.1-0.6-0.1C8.6,69,7.7,68,7.5,66.8   l-1.1-7.9C4.8,48,8.1,37,15.3,28.7c7.3-8.4,17.8-13.2,29-13.2c11.1,0,21.7,4.8,29,13.2C80.4,37,83.7,48,82.1,58.9L81,66.8   C80.7,68.5,78.9,69.8,77.1,69.4z M98.1,106.9c-0.8,2.3-2.7,4.2-5,5c-2.4,0.9-5,0.6-7.2-0.6l-5.3-3c-2.2-1.3-3.7-3.4-4.1-5.9   c-0.4-2.5,0.2-5,1.9-6.9L88,84.2c5.3,2.4,10.4,5.4,15.2,8.8L98.1,106.9z M118.3,93.5l-3,3.8c-0.2,0.3-0.6,0.5-0.9,0.5   c-0.4,0-0.7-0.1-1-0.3c-9.8-9-21.7-15.8-34.4-19.8c-0.1,0-0.3-0.1-0.4-0.2c-0.1-0.1-0.1-0.1-0.2-0.2c-0.1-0.1-0.2-0.2-0.3-0.3   c-0.2-0.3-0.2-0.7,0-1l1.4-3.6c2.2-0.7,4-2.6,4.4-5l0.4-2.7c7-7.5,18.5-9.2,27.4-4c5.6,3.3,9.6,8.8,10.8,15.2   C123.8,81.9,122.2,88.4,118.3,93.5z" fill="#454B54"/><g><path d="M90.2,105.5c-0.2,0-0.5-0.1-0.7-0.2l-5.3-3c-0.7-0.4-1-1.3-0.6-2c0.4-0.7,1.3-1,2-0.6l5.3,3    c0.7,0.4,1,1.3,0.6,2C91.2,105.2,90.7,105.5,90.2,105.5z" fill="#454B54"/></g></g></svg>